<?xml version="1.0" ?><svg height="512" id="svg2" version="1.1" width="512" xmlns="http://www.w3.org/2000/svg" xmlns:cc="http://creativecommons.org/ns#" xmlns:dc="http://purl.org/dc/elements/1.1/" xmlns:inkscape="http://www.inkscape.org/namespaces/inkscape" xmlns:rdf="http://www.w3.org/1999/02/22-rdf-syntax-ns#" xmlns:sodipodi="http://sodipodi.sourceforge.net/DTD/sodipodi-0.dtd" xmlns:svg="http://www.w3.org/2000/svg"><defs id="defs4"><clipPath clipPathUnits="userSpaceOnUse" id="clipPath3847"><rect height="401.85031" id="rect3849" ry="24.940269" style="fill:#005cc8;fill-opacity:1;stroke:none" width="405.50885" x="192.91168" y="341.59683"/></clipPath><clipPath clipPathUnits="userSpaceOnUse" id="clipPath4206"><rect height="342.67416" id="rect4208" ry="21.83189" style="fill:#005ad2;fill-opacity:1;stroke:none" width="342.67416" x="275.56522" y="396.76877"/></clipPath><clipPath clipPathUnits="userSpaceOnUse" id="clipPath2999"><rect height="381.10965" id="rect3001" rx="144.62547" ry="150.47057" style="fill:#39bb59;fill-opacity:1;stroke:none" width="366.3053" x="248.048" y="356.82513"/></clipPath></defs><g id="layer1" transform="translate(0,-540.36218)"><rect height="506.55707" id="rect3851" rx="200" ry="200" style="fill:#39bb59;fill-opacity:1;stroke:none" width="506.55707" x="3.1982057" y="544.98157"/><g clip-path="url(#clipPath2999)" id="g4145" style="opacity:0.48961247;fill:#000000;fill-opacity:0.05882353" transform="matrix(1.3828822,0,0,1.3291636,-339.82296,70.702582)"><g id="g4147" style="fill:#000000;fill-opacity:0.05882353;stroke:none"><path d="m 561.53848,561.01605 c 0,61.06995 -50.79847,110.57692 -113.46155,110.57692 l 707.10677,707.10683 c 62.6631,0 113.4616,-49.507 113.4616,-110.577 z" id="path4149" style="fill:#000000;fill-opacity:0.05882353"/><path d="m 448.07693,671.59297 c -31.86024,0 -60.65337,-12.79797 -81.26213,-33.40672 l 707.1068,707.10675 c 20.6087,20.6088 49.4019,33.4068 81.2621,33.4068 z" id="path4151" style="fill:#000000;fill-opacity:0.05882353"/><path d="m 366.8148,638.18625 c -19.92477,-19.92478 -32.19941,-47.15048 -32.19941,-77.1702 l 707.10681,707.10675 c 0,30.0197 12.2746,57.2455 32.1994,77.1702 z" id="path4153" style="fill:#000000;fill-opacity:0.05882353"/><path d="m 334.61539,561.01605 c 0,-61.06994 50.79847,-110.57692 113.46154,-110.57692 l 707.10677,707.10677 c -62.6631,0 -113.4615,49.507 -113.4615,110.5769 z" id="path4155" style="fill:#000000;fill-opacity:0.05882353"/><path d="m 448.07693,450.43913 c 31.86024,0 60.65338,12.79797 81.26214,33.40672 l 707.10673,707.10675 c -20.6087,-20.6087 -49.4018,-33.4067 -81.2621,-33.4067 z" id="path4157" style="fill:#000000;fill-opacity:0.05882353"/><path d="m 529.33907,483.84585 c 19.92477,19.92478 32.19941,47.15049 32.19941,77.1702 l 707.10682,707.10675 c 0,-30.0197 -12.2747,-57.2454 -32.1995,-77.1702 z" id="path4159" style="fill:#000000;fill-opacity:0.05882353"/></g><path d="m 561.53848,561.01605 c 0,61.06995 -50.79847,110.57692 -113.46155,110.57692 -62.66307,0 -113.46154,-49.50697 -113.46154,-110.57692 0,-61.06994 50.79847,-110.57692 113.46154,-110.57692 62.66308,0 113.46155,49.50698 113.46155,110.57692 z" id="path4111" style="fill:#000000;fill-opacity:0.05882353;stroke:none"/></g><path d="m 328.89322,819.96352 c 3.69742,1.92268 6.06376,2.95802 6.80325,4.43696 0.88738,1.62681 0.59159,9.02165 -3.10583,17.45183 -2.95794,8.28217 -18.33921,16.26862 -25.14246,16.56435 -6.80326,0.29587 -6.95115,5.3243 -43.77746,-10.79646 -36.82629,-16.12075 -59.01081,-55.46125 -60.78558,-57.97549 -1.77475,-2.51426 -14.19809,-20.40977 -13.6065,-38.60108 0.73949,-18.0434 10.20489,-26.62142 14.0502,-30.17093 3.54953,-3.84533 7.54273,-4.28901 10.05699,-3.84533 h 6.95114 c 2.21845,0 5.32428,-0.88738 8.13432,6.65536 l 10.20489,27.65671 c 0.88737,1.92265 1.47896,4.1411 0.14789,6.50746 l -3.99321,6.06376 -5.76798,6.21166 c -1.77477,1.77477 -3.84531,3.69742 -1.77477,7.39484 1.77477,3.84532 9.16961,16.12076 19.52239,26.32564 13.4586,13.01497 25.29035,17.30393 28.83987,19.22661 3.54952,2.07054 5.76797,1.77467 7.98642,-0.59161 l 11.97965,-13.90231 c 2.81003,-3.69742 5.17639,-2.81004 8.57801,-1.62686 l 24.69877,13.01489 M 258.64224,643.07899 A 147.89679,147.89679 0 0 1 406.53902,790.97577 147.89679,147.89679 0 0 1 258.64224,938.87256 c -29.13567,0 -56.20078,-8.43018 -79.12478,-22.92399 l -68.77201,22.92399 22.924,-68.77197 c -14.49389,-22.92399 -22.924,-49.9892 -22.924,-79.12482 A 147.89679,147.89679 0 0 1 258.64224,643.07899 m 0,29.57936 A 118.31743,118.31743 0 0 0 140.32481,790.97577 c 0,25.43827 7.98643,48.95386 21.59293,68.18036 l -14.19809,42.74223 42.74217,-14.19807 c 19.22659,13.60647 42.74217,21.59291 68.18042,21.59291 A 118.31743,118.31743 0 0 0 376.95966,790.97577 118.31743,118.31743 0 0 0 258.64224,672.65835 z" id="path4074" style="fill:#ffffff"/></g></svg>