<?xml version="1.0" ?><svg height="512" id="svg2" version="1.1" width="512" xmlns="http://www.w3.org/2000/svg" xmlns:cc="http://creativecommons.org/ns#" xmlns:dc="http://purl.org/dc/elements/1.1/" xmlns:inkscape="http://www.inkscape.org/namespaces/inkscape" xmlns:rdf="http://www.w3.org/1999/02/22-rdf-syntax-ns#" xmlns:sodipodi="http://sodipodi.sourceforge.net/DTD/sodipodi-0.dtd" xmlns:svg="http://www.w3.org/2000/svg"><defs id="defs4"><clipPath clipPathUnits="userSpaceOnUse" id="clipPath3847"><rect height="401.85031" id="rect3849" ry="24.940269" style="fill:#005cc8;fill-opacity:1;stroke:none" width="405.50885" x="192.91168" y="341.59683"/></clipPath><clipPath clipPathUnits="userSpaceOnUse" id="clipPath4206"><rect height="342.67416" id="rect4208" ry="21.83189" style="fill:#005ad2;fill-opacity:1;stroke:none" width="342.67416" x="275.56522" y="396.76877"/></clipPath><clipPath clipPathUnits="userSpaceOnUse" id="clipPath2999"><rect height="367.72116" id="rect3001" rx="141.88354" ry="145.18449" style="fill:#f84a37;fill-opacity:1;stroke:none" width="359.36057" x="262.88202" y="368.93268"/></clipPath></defs><g id="layer1" transform="translate(0,-540.36218)"><rect height="506.55707" id="rect3851" rx="200" ry="200" style="fill:#f84a37;fill-opacity:1;stroke:none" width="506.55707" x="3.1982057" y="544.98157"/><g clip-path="url(#clipPath2999)" id="g4145" style="opacity:0.76744187;fill:#000000;fill-opacity:0.05882353" transform="matrix(1.4096067,0,0,1.2650715,-367.36203,116.69196)"><g id="g4147" style="fill:#000000;fill-opacity:0.05882353;stroke:none"><path d="m 561.53848,561.01605 c 0,61.06995 -50.79847,110.57692 -113.46155,110.57692 l 707.10677,707.10683 c 62.6631,0 113.4616,-49.507 113.4616,-110.577 z" id="path4149" style="fill:#000000;fill-opacity:0.05882353"/><path d="m 448.07693,671.59297 c -31.86024,0 -60.65337,-12.79797 -81.26213,-33.40672 l 707.1068,707.10675 c 20.6087,20.6088 49.4019,33.4068 81.2621,33.4068 z" id="path4151" style="fill:#000000;fill-opacity:0.05882353"/><path d="m 366.8148,638.18625 c -19.92477,-19.92478 -32.19941,-47.15048 -32.19941,-77.1702 l 707.10681,707.10675 c 0,30.0197 12.2746,57.2455 32.1994,77.1702 z" id="path4153" style="fill:#000000;fill-opacity:0.05882353"/><path d="m 334.61539,561.01605 c 0,-61.06994 50.79847,-110.57692 113.46154,-110.57692 l 707.10677,707.10677 c -62.6631,0 -113.4615,49.507 -113.4615,110.5769 z" id="path4155" style="fill:#000000;fill-opacity:0.05882353"/><path d="m 448.07693,450.43913 c 31.86024,0 60.65338,12.79797 81.26214,33.40672 l 707.10673,707.10675 c -20.6087,-20.6087 -49.4018,-33.4067 -81.2621,-33.4067 z" id="path4157" style="fill:#000000;fill-opacity:0.05882353"/><path d="m 529.33907,483.84585 c 19.92477,19.92478 32.19941,47.15049 32.19941,77.1702 l 707.10682,707.10675 c 0,-30.0197 -12.2747,-57.2454 -32.1995,-77.1702 z" id="path4159" style="fill:#000000;fill-opacity:0.05882353"/></g><path d="m 561.53848,561.01605 c 0,61.06995 -50.79847,110.57692 -113.46155,110.57692 -62.66307,0 -113.46154,-49.50697 -113.46154,-110.57692 0,-61.06994 50.79847,-110.57692 113.46154,-110.57692 62.66308,0 113.46155,49.50698 113.46155,110.57692 z" id="path4111" style="fill:#000000;fill-opacity:0.05882353;stroke:none"/></g><path d="m 227.37282,845.2855 80.41787,-46.48431 -80.41787,-46.48432 V 845.2855 M 406.4924,723.96144 c 2.01431,7.28255 3.40885,17.04425 4.33854,29.44007 1.08463,12.39582 1.54947,23.08722 1.54947,32.38407 l 0.92968,13.01561 c 0,33.9335 -2.47915,58.8802 -6.81769,74.83973 -3.87369,13.94536 -12.86066,22.93228 -26.80596,26.80599 -7.28255,2.0143 -20.60804,3.40884 -41.06115,4.33855 -20.1432,1.08461 -38.58198,1.54945 -55.62624,1.54945 l -24.63668,0.9297 c -64.92311,0 -105.36446,-2.47915 -121.32408,-6.8177 -13.94529,-3.87371 -22.93226,-12.86063 -26.80595,-26.80599 -2.01432,-7.28255 -3.40885,-17.04425 -4.33854,-29.44003 -1.08463,-12.39577 -1.54948,-23.08718 -1.54948,-32.38408 l -0.92969,-13.01562 c 0,-33.93355 2.47917,-58.88012 6.81771,-74.83975 3.87369,-13.94529 12.86066,-22.93226 26.80595,-26.80596 7.28254,-2.01432 20.60805,-3.40885 41.06114,-4.33853 20.14321,-1.08464 38.58199,-1.54948 55.62625,-1.54948 l 24.63669,-0.92969 c 64.9231,0 105.36446,2.47917 121.32407,6.8177 13.9453,3.8737 22.93227,12.86067 26.80596,26.80596 z" id="path3948" style="fill:#ffffff"/></g></svg>